<svg id="Layer_1" data-name="Layer 1" xmlns="http://www.w3.org/2000/svg" viewBox="0 0 611.78 50.39">
  <title>flyvision-logo</title>
  <g>
    <path d="M.24,13.5c.91-.07,1.83-.19,2.74-.19q20.58,0,41.16,0a8.56,8.56,0,0,1,2.57.39,2.51,2.51,0,0,1,.77,4.11,5.52,5.52,0,0,1-2.2.79,8.86,8.86,0,0,1-1.79.06c-11.88,0-23.76,0-35.64,0-1.86,0-2.56.54-2.5,2.52q.12,4.8,0,9.6c0,1.83.63,2.5,2.43,2.48,8.4-.06,16.8,0,25.2,0,1.09,0,2.27,0,2.76,1.18a4.06,4.06,0,0,1,.35,2.51c-.18.58-1.09,1-1.77,1.33a4.83,4.83,0,0,1-1.79.08H7.69c-1.94,0-2.32.37-2.32,2.28q0,7.26,0,14.52c0,1.15,0,2.3-1.47,2.75A2.68,2.68,0,0,1,1,57.11a9.45,9.45,0,0,0-.77-.65Z" transform="translate(-0.24 -9.81)"/>
    <path d="M366.1,18.67H344.86A7.76,7.76,0,0,0,339,20.74a7,7,0,0,0-2,6.68,7,7,0,0,0,1.92,3.8,8.92,8.92,0,0,0,6.56,2.22h34.43c4.4,0,7.71,2.19,10.12,5.58a10.64,10.64,0,0,1,2,7.52,24.54,24.54,0,0,1-1.64,5.09c-.91,2.46-2.87,3.93-5.08,5.13a6.51,6.51,0,0,1-2,.87,37.57,37.57,0,0,1-5.68.65q-21.06.08-42.11,0a6.13,6.13,0,0,1-2.07-.39A2.42,2.42,0,0,1,331.65,55c.13-1.08,1.27-1.82,2.6-2.09a8,8,0,0,1,1.55,0q21.24,0,42.48,0a16,16,0,0,0,4.07-.59c1.94-.53,3.06-2,3.9-3.78,1.25-2.63.6-4-.8-6.53-1.65-3-4.47-3.36-7.28-3.39-10.71-.11-21.43,0-32.15-.05a28.88,28.88,0,0,1-4.66-.24,11.3,11.3,0,0,1-5.56-2.73,12.11,12.11,0,0,1-4.21-8.64A12.67,12.67,0,0,1,335,17.19a11.62,11.62,0,0,1,4.93-3c3.28-1.12,6.61-.86,9.94-.87,12.75,0,25.51,0,38.27,0,1.39,0,2.68.16,3.58,1.44a2.22,2.22,0,0,1-.94,3.36,12.16,12.16,0,0,1-3.27.54C380.34,18.69,373.22,18.66,366.1,18.67Z" transform="translate(-0.24 -9.81)"/>
    <path d="M612,33.71c0,6.84,0,13.68,0,20.52a3.37,3.37,0,0,1-2,3.32c-1.24.58-2.41,0-3.46-.92-2.56-2.17-5.19-4.26-7.8-6.38-1.82-1.47-3.65-2.93-5.46-4.41s-3.77-3.14-5.67-4.7c-5.08-4.16-10.17-8.3-15.23-12.48-1.33-1.09-2.57-2.3-3.9-3.39-1.68-1.38-3.41-2.72-5.15-4a1.16,1.16,0,0,0-1.06-.12,1.39,1.39,0,0,0-.54,1c0,3.48,0,7,0,10.43q0,10.74,0,21.48c0,.6-.06,1.2,0,1.79a1.93,1.93,0,0,1-1.58,2,2.42,2.42,0,0,1-2.58-.68,2.84,2.84,0,0,1-.92-2.29c0-12.8.05-25.59,0-38.39a4,4,0,0,1,2.22-3.73,2.39,2.39,0,0,1,2.1.11c2.09,1.44,4.1,3,6.08,4.6,2.53,2,5,4.09,7.5,6.14L588,34.81l12.08,9.9c1.51,1.24,3,2.5,4.54,3.73a3.08,3.08,0,0,0,1.13.6c.64.15,1.1-.1,1.1-.86v-1q0-17,0-33.95a5.53,5.53,0,0,1,.48-2.5,2.59,2.59,0,0,1,3-.74A3.07,3.07,0,0,1,612,12.6c0,3.8,0,7.6,0,11.4Z" transform="translate(-0.24 -9.81)"/>
    <path d="M228.55,59.82c-.63-.83-1.19-1.51-1.69-2.23-2.94-4.25-5.86-8.51-8.8-12.76s-5.91-8.5-8.85-12.75c-2.12-3.07-4.21-6.15-6.32-9.22-1.26-1.84-2.52-3.68-3.8-5.51a2.38,2.38,0,0,1,.2-2.92c1-1,2.3-1.3,3.22-.56a9.74,9.74,0,0,1,1.81,2c2,2.93,3.93,5.92,6,8.85,2.33,3.37,4.73,6.7,7.1,10,1.47,2.07,3,4.12,4.42,6.21,2,2.89,4,5.8,5.92,8.71.53.76,1.33.84,1.81.16l4-5.7c1.48-2.1,3-4.2,4.47-6.3q5.25-7.41,10.49-14.81,2.93-4.16,5.83-8.32a2.81,2.81,0,0,1,3.71-.78,2.48,2.48,0,0,1,.6,3.76c-1.54,2.22-3,4.49-4.57,6.68-2.18,3-4.49,6-6.66,9.06-3.23,4.57-6.37,9.2-9.58,13.78-1.79,2.56-3.64,5.06-5.45,7.6-.91,1.27-1.79,2.58-2.7,3.85C229.36,59,229,59.32,228.55,59.82Z" transform="translate(-0.24 -9.81)"/>
    <path d="M146.34,48.07c0-2.83-.08-5.68,0-8.51a3.9,3.9,0,0,0-1.77-3.51c-1.87-1.38-3.79-2.71-5.65-4.12-2.59-1.95-5.12-4-7.71-5.92-1.65-1.24-3.38-2.39-5.05-3.62-1.88-1.39-3.72-2.83-5.59-4.26a2.65,2.65,0,0,1-.61-3.62,2.56,2.56,0,0,1,3.53-.59c2.61,1.91,5.16,3.9,7.76,5.83s5.48,4,8.2,6c1.73,1.29,3.41,2.62,5.11,3.93l2.88,2.18a2,2,0,0,0,2.54-.05c2.23-1.75,4.38-3.62,6.63-5.35s4.33-3.09,6.43-4.71c1.86-1.43,3.61-3,5.44-4.48,1.42-1.14,2.88-2.25,4.36-3.32a2.78,2.78,0,0,1,3.59.45c.6.72.25,3.05-.59,3.72q-4.1,3.27-8.2,6.5c-2.54,2-5.1,4-7.64,5.95s-5.36,4.19-8,6.35a2.14,2.14,0,0,0-.58,1.48q-.06,9.3,0,18.59a2.54,2.54,0,0,1-1.26,2.36,2.15,2.15,0,0,1-2.42.33,2.3,2.3,0,0,1-1.41-2.14c0-3.16,0-6.32,0-9.48Z" transform="translate(-0.24 -9.81)"/>
    <path d="M67.64,36.74c0-7.19,0-14.39,0-21.58A3,3,0,0,1,69.8,12c1-.4,2.65.83,2.85,2.09A12.11,12.11,0,0,1,72.74,16v36.7c0,1.83.14,2,2,2h26.62c1.3,0,2.51.19,3.22,1.49a2.41,2.41,0,0,1-1.25,3.46,9,9,0,0,1-2.66.51q-15.66,0-31.3,0c-1.69,0-1.7,0-1.7-1.75Q67.63,47.61,67.64,36.74Z" transform="translate(-0.24 -9.81)"/>
    <path d="M503.65,35.86c.25,5.63-5.22,10.54-10.59,10.49A10.84,10.84,0,0,1,482.7,34.6c.36-4.49,5.78-9.64,10.62-9.53S504,30.09,503.65,35.86Z" transform="translate(-0.24 -9.81)"/>
    <path d="M295.65,35.13c0,6.51,0,13,0,19.54,0,1.22-.13,2.56-1.5,3.1a2.75,2.75,0,0,1-3.91-2.53,6,6,0,0,1,0-.6V15.56a3.29,3.29,0,0,1,2.23-3.42,2.38,2.38,0,0,1,2.6,1,9.26,9.26,0,0,1,.58,2.77C295.67,22.34,295.65,28.73,295.65,35.13Z" transform="translate(-0.24 -9.81)"/>
    <path d="M431.27,35.17c0,6.76,0,13.51,0,20.26,0,1.94-1.14,2.4-2.44,2.52a2.56,2.56,0,0,1-2.61-2.48c.07-3.91,0-7.83,0-11.75V16.39c0-.64,0-1.28.06-1.91A2.92,2.92,0,0,1,428.74,12a2.69,2.69,0,0,1,2.53,2.6Q431.29,24.87,431.27,35.17Z" transform="translate(-0.24 -9.81)"/>
  </g>
</svg>
